<svg width="17" height="15" viewBox="0 0 17 15" fill="none" xmlns="http://www.w3.org/2000/svg">
<path d="M11.5601 9.83333C11.5601 9.09667 9.41805 8.5 6.77563 8.5M11.5601 9.83333C11.5601 10.57 9.41805 11.1667 6.77563 11.1667C4.13321 11.1667 1.99112 10.57 1.99112 9.83333M11.5601 9.83333V13.1247C11.5601 13.884 9.41805 14.5 6.77563 14.5C4.13321 14.5 1.99112 13.8847 1.99112 13.1247V9.83333M11.5601 9.83333C14.1739 9.83333 16.3447 9.17533 16.3447 8.5V1.83333M6.77563 8.5C4.13321 8.5 1.99112 9.09667 1.99112 9.83333M6.77563 8.5C3.75592 8.5 1.30762 7.842 1.30762 7.16667V3.83333M6.77563 2.5C3.75592 2.5 1.30762 3.09667 1.30762 3.83333M1.30762 3.83333C1.30762 4.57 3.75592 5.16667 6.77563 5.16667C6.77563 5.842 8.99906 6.5 11.6128 6.5C14.2258 6.5 16.3447 5.842 16.3447 5.16667M16.3447 1.83333C16.3447 1.09667 14.2258 0.5 11.6128 0.5C8.99906 0.5 6.88089 1.09667 6.88089 1.83333M16.3447 1.83333C16.3447 2.57 14.2258 3.16667 11.6128 3.16667C8.99975 3.16667 6.88089 2.57 6.88089 1.83333M6.88089 1.83333V8.61067" stroke="white"/>
</svg>
