<svg width="16" height="15" viewBox="0 0 16 15" fill="none" xmlns="http://www.w3.org/2000/svg">
<path d="M13.1824 7.03125H10.6574C9.40117 7.03125 8.79492 6.41875 8.79492 5.16875V2.64375C8.79492 1.3875 9.40742 0.78125 10.6574 0.78125H13.1824C14.4387 0.78125 15.0449 1.39375 15.0449 2.64375V5.16875C15.0449 6.41875 14.4324 7.03125 13.1824 7.03125ZM10.6574 1.71875C9.91992 1.71875 9.73242 1.90625 9.73242 2.64375V5.16875C9.73242 5.90625 9.91992 6.09375 10.6574 6.09375H13.1824C13.9199 6.09375 14.1074 5.90625 14.1074 5.16875V2.64375C14.1074 1.90625 13.9199 1.71875 13.1824 1.71875H10.6574Z" fill="white"/>
<path d="M5.99492 7.03125H3.46992C2.21367 7.03125 1.60742 6.475 1.60742 5.325V2.4875C1.60742 1.3375 2.21992 0.78125 3.46992 0.78125H5.99492C7.25117 0.78125 7.85742 1.3375 7.85742 2.4875V5.31875C7.85742 6.475 7.24492 7.03125 5.99492 7.03125ZM3.46992 1.71875C2.63242 1.71875 2.54492 1.95625 2.54492 2.4875V5.31875C2.54492 5.85625 2.63242 6.0875 3.46992 6.0875H5.99492C6.83242 6.0875 6.91992 5.85 6.91992 5.31875V2.4875C6.91992 1.95 6.83242 1.71875 5.99492 1.71875H3.46992Z" fill="white"/>
<path d="M5.99492 14.2188H3.46992C2.21367 14.2188 1.60742 13.6063 1.60742 12.3563V9.83125C1.60742 8.575 2.21992 7.96875 3.46992 7.96875H5.99492C7.25117 7.96875 7.85742 8.58125 7.85742 9.83125V12.3563C7.85742 13.6063 7.24492 14.2188 5.99492 14.2188ZM3.46992 8.90625C2.73242 8.90625 2.54492 9.09375 2.54492 9.83125V12.3563C2.54492 13.0938 2.73242 13.2812 3.46992 13.2812H5.99492C6.73242 13.2812 6.91992 13.0938 6.91992 12.3563V9.83125C6.91992 9.09375 6.73242 8.90625 5.99492 8.90625H3.46992Z" fill="white"/>
<path d="M13.6387 11.4062H9.88867C9.63242 11.4062 9.41992 11.1938 9.41992 10.9375C9.41992 10.6813 9.63242 10.4688 9.88867 10.4688H13.6387C13.8949 10.4688 14.1074 10.6813 14.1074 10.9375C14.1074 11.1938 13.8949 11.4062 13.6387 11.4062Z" fill="white"/>
<path d="M11.7637 13.2812C11.5074 13.2812 11.2949 13.0687 11.2949 12.8125V9.0625C11.2949 8.80625 11.5074 8.59375 11.7637 8.59375C12.0199 8.59375 12.2324 8.80625 12.2324 9.0625V12.8125C12.2324 13.0687 12.0199 13.2812 11.7637 13.2812Z" fill="white"/>
</svg>
