<svg width="17" height="17" viewBox="0 0 17 17" fill="none" xmlns="http://www.w3.org/2000/svg">
<path d="M5.66666 4.07291C5.37624 4.07291 5.13541 3.83207 5.13541 3.54166V1.41666C5.13541 1.12624 5.37624 0.885406 5.66666 0.885406C5.95707 0.885406 6.19791 1.12624 6.19791 1.41666V3.54166C6.19791 3.83207 5.95707 4.07291 5.66666 4.07291Z" fill="#292D32" fill-opacity="0.5"/>
<path d="M11.3333 4.07291C11.0429 4.07291 10.8021 3.83207 10.8021 3.54166V1.41666C10.8021 1.12624 11.0429 0.885406 11.3333 0.885406C11.6238 0.885406 11.8646 1.12624 11.8646 1.41666V3.54166C11.8646 3.83207 11.6238 4.07291 11.3333 4.07291Z" fill="#292D32" fill-opacity="0.5"/>
<path d="M14.5208 6.96997H2.47916C2.18874 6.96997 1.94791 6.72914 1.94791 6.43872C1.94791 6.1483 2.18874 5.90747 2.47916 5.90747H14.5208C14.8112 5.90747 15.0521 6.1483 15.0521 6.43872C15.0521 6.72914 14.8112 6.96997 14.5208 6.96997Z" fill="#292D32" fill-opacity="0.5"/>
<path d="M11.3333 16.1146H5.66667C3.08125 16.1146 1.59375 14.6271 1.59375 12.0417V6.02082C1.59375 3.43541 3.08125 1.94791 5.66667 1.94791H11.3333C13.9187 1.94791 15.4062 3.43541 15.4062 6.02082V12.0417C15.4062 14.6271 13.9187 16.1146 11.3333 16.1146ZM5.66667 3.01041C3.64083 3.01041 2.65625 3.99499 2.65625 6.02082V12.0417C2.65625 14.0675 3.64083 15.0521 5.66667 15.0521H11.3333C13.3592 15.0521 14.3438 14.0675 14.3438 12.0417V6.02082C14.3438 3.99499 13.3592 3.01041 11.3333 3.01041H5.66667Z" fill="#292D32" fill-opacity="0.5"/>
<path d="M6.02083 10.2708C5.92875 10.2708 5.83666 10.2496 5.75166 10.2142C5.66666 10.1788 5.58876 10.1292 5.51792 10.0654C5.45417 9.99458 5.40457 9.91667 5.36916 9.83167C5.33374 9.74667 5.3125 9.65458 5.3125 9.5625C5.3125 9.37833 5.39042 9.19417 5.51792 9.05959C5.58876 8.99584 5.66666 8.94624 5.75166 8.91082C5.87916 8.85416 6.02084 8.83999 6.16251 8.86832C6.20501 8.87541 6.2475 8.88957 6.29 8.91082C6.3325 8.92499 6.375 8.94626 6.4175 8.97459C6.45291 9.00292 6.48833 9.03125 6.52374 9.05959C6.55208 9.095 6.58749 9.13042 6.60874 9.16583C6.63707 9.20833 6.65834 9.25083 6.67251 9.29333C6.69376 9.33583 6.70792 9.37832 6.71501 9.42082C6.72209 9.47041 6.72917 9.51291 6.72917 9.5625C6.72917 9.74666 6.65124 9.93083 6.52374 10.0654C6.38916 10.1929 6.205 10.2708 6.02083 10.2708Z" fill="#292D32" fill-opacity="0.5"/>
<path d="M8.49999 10.2708C8.31582 10.2708 8.13166 10.1929 7.99708 10.0654C7.96875 10.03 7.94042 9.99458 7.91208 9.95917C7.88375 9.91667 7.86248 9.87417 7.84831 9.83167C7.82706 9.78917 7.8129 9.74668 7.80582 9.70418C7.79873 9.65459 7.79166 9.61208 7.79166 9.5625C7.79166 9.47042 7.8129 9.37833 7.84831 9.29333C7.88373 9.20833 7.93333 9.13042 7.99708 9.05959C8.19541 8.86126 8.51416 8.79749 8.76916 8.91083C8.86124 8.94624 8.93207 8.99584 9.0029 9.05959C9.1304 9.19417 9.20832 9.37833 9.20832 9.5625C9.20832 9.61208 9.20125 9.65459 9.19416 9.70418C9.18708 9.74668 9.17292 9.78917 9.15167 9.83167C9.1375 9.87417 9.11623 9.91667 9.0879 9.95917C9.05956 9.99458 9.03123 10.03 9.0029 10.0654C8.93207 10.1292 8.86124 10.1788 8.76916 10.2142C8.68416 10.2496 8.59207 10.2708 8.49999 10.2708Z" fill="#292D32" fill-opacity="0.5"/>
<path d="M6.02083 12.75C5.92875 12.75 5.83666 12.7288 5.75166 12.6933C5.66666 12.6579 5.58876 12.6083 5.51792 12.5446C5.45417 12.4737 5.40457 12.4029 5.36916 12.3108C5.33374 12.2258 5.3125 12.1337 5.3125 12.0417C5.3125 11.8575 5.39042 11.6733 5.51792 11.5387C5.58876 11.475 5.66666 11.4254 5.75166 11.39C6.01375 11.2766 6.32541 11.3404 6.52374 11.5387C6.55208 11.5742 6.58749 11.6096 6.60874 11.645C6.63707 11.6875 6.65834 11.73 6.67251 11.7725C6.69376 11.815 6.70792 11.8575 6.71501 11.9071C6.72209 11.9496 6.72917 11.9992 6.72917 12.0417C6.72917 12.2258 6.65124 12.41 6.52374 12.5446C6.38916 12.6721 6.205 12.75 6.02083 12.75Z" fill="#292D32" fill-opacity="0.5"/>
</svg>
