<svg width="25" height="25" viewBox="0 0 25 25" fill="none" xmlns="http://www.w3.org/2000/svg">
<path d="M15.9209 23.2955H9.9209C4.4909 23.2955 2.1709 20.9755 2.1709 15.5455V9.5455C2.1709 4.1155 4.4909 1.7955 9.9209 1.7955H15.9209C21.3509 1.7955 23.6709 4.1155 23.6709 9.5455V15.5455C23.6709 15.7855 23.6709 16.0355 23.6509 16.2655C23.6209 16.5655 23.4109 16.8255 23.1209 16.9155C22.8309 17.0055 22.5109 16.9055 22.3209 16.6655C21.6109 15.7955 20.5609 15.2955 19.4209 15.2955C18.5709 15.2955 17.7409 15.5855 17.0809 16.1155C16.1809 16.8255 15.6709 17.8855 15.6709 19.0455C15.6709 20.1755 16.1709 21.2355 17.0409 21.9455C17.2809 22.1355 17.3709 22.4555 17.2909 22.7455C17.2009 23.0355 16.9509 23.2455 16.6409 23.2755C16.4109 23.2955 16.1609 23.2955 15.9209 23.2955ZM9.9209 3.2955C5.3109 3.2955 3.6709 4.9355 3.6709 9.5455V15.5455C3.6709 20.1555 5.3109 21.7955 9.9209 21.7955H14.9409C14.4409 20.9855 14.1709 20.0355 14.1709 19.0455C14.1709 17.4255 14.8909 15.9355 16.1509 14.9455C17.8309 13.5855 20.3809 13.4655 22.1709 14.5655V9.5455C22.1709 4.9355 20.5309 3.2955 15.9209 3.2955H9.9209Z" fill="white"/>
<path d="M22.4009 8.40548H3.44092C3.03092 8.40548 2.69092 8.06548 2.69092 7.65548C2.69092 7.24548 3.03092 6.90548 3.44092 6.90548H22.4009C22.8109 6.90548 23.1509 7.24548 23.1509 7.65548C23.1509 8.06548 22.8209 8.40548 22.4009 8.40548Z" fill="white"/>
<path d="M9.44092 8.26547C9.03092 8.26547 8.69092 7.92547 8.69092 7.51547V2.65548C8.69092 2.24548 9.03092 1.90548 9.44092 1.90548C9.85092 1.90548 10.1909 2.24548 10.1909 2.65548V7.51547C10.1909 7.92547 9.85092 8.26547 9.44092 8.26547Z" fill="white"/>
<path d="M16.4009 7.81552C15.9909 7.81552 15.6509 7.47552 15.6509 7.06552V2.65548C15.6509 2.24548 15.9909 1.90548 16.4009 1.90548C16.8109 1.90548 17.1509 2.24548 17.1509 2.65548V7.06552C17.1509 7.48552 16.8209 7.81552 16.4009 7.81552Z" fill="white"/>
<path d="M19.4209 24.2955C18.2009 24.2955 17.0209 23.8755 16.0909 23.1055C14.8709 22.1155 14.1709 20.6355 14.1709 19.0455C14.1709 17.4255 14.8909 15.9355 16.1509 14.9455C17.0709 14.2055 18.2309 13.7955 19.4209 13.7955C21.0109 13.7955 22.4909 14.4955 23.4809 15.7255C24.2409 16.6455 24.6709 17.8255 24.6709 19.0455C24.6709 20.5355 24.0209 21.9755 22.8909 22.9855C21.9109 23.8355 20.6809 24.2955 19.4209 24.2955ZM19.4209 15.2955C18.5709 15.2955 17.7409 15.5855 17.0809 16.1155C16.1809 16.8255 15.6709 17.8855 15.6709 19.0455C15.6709 20.1755 16.1709 21.2355 17.0409 21.9455C18.4009 23.0755 20.5109 23.0655 21.9009 21.8555C22.7009 21.1355 23.1709 20.1055 23.1709 19.0455C23.1709 18.1755 22.8709 17.3355 22.3209 16.6755C21.6109 15.7955 20.5509 15.2955 19.4209 15.2955Z" fill="white"/>
<path d="M18.3007 20.9255C18.0507 20.9255 17.8007 20.7955 17.6607 20.5655C17.4507 20.2055 17.5607 19.7455 17.9207 19.5355L18.9607 18.9155V17.6555C18.9607 17.2455 19.3007 16.9055 19.7107 16.9055C20.1207 16.9055 20.4607 17.2455 20.4607 17.6555V19.3455C20.4607 19.6055 20.3207 19.8555 20.1007 19.9855L18.6907 20.8255C18.5607 20.8855 18.4307 20.9255 18.3007 20.9255Z" fill="white"/>
</svg>
