<svg width="21" height="21" viewBox="0 0 21 21" fill="none" xmlns="http://www.w3.org/2000/svg">
<path d="M5.80121 19.9148C6.74287 19.9148 7.73454 19.6898 8.75954 19.2565C9.75954 18.8315 10.7679 18.2482 11.7512 17.5398C12.7262 16.8232 13.6679 16.0232 14.5595 15.1482C15.4429 14.2565 16.2429 13.3148 16.9512 12.3482C17.6679 11.3482 18.2429 10.3482 18.6512 9.38149C19.0845 8.34815 19.3012 7.34815 19.3012 6.40649C19.3012 5.75649 19.1845 5.13982 18.9595 4.56482C18.7262 3.97315 18.3512 3.42315 17.8429 2.94815C17.2012 2.31482 16.4679 1.99815 15.6845 1.99815C15.3595 1.99815 15.0262 2.07315 14.7429 2.20649C14.4179 2.35649 14.1429 2.58149 13.9429 2.88149L12.0095 5.60649C11.8345 5.84815 11.7012 6.08149 11.6095 6.31482C11.5012 6.56482 11.4429 6.81482 11.4429 7.05649C11.4429 7.37315 11.5345 7.68149 11.7095 7.97315C11.8345 8.19815 12.0262 8.43982 12.2679 8.68149L12.8345 9.27315C12.8262 9.29815 12.8179 9.31482 12.8095 9.33149C12.7095 9.50649 12.5095 9.80649 12.1262 10.2565C11.7179 10.7232 11.3345 11.1482 10.9512 11.5398C10.4595 12.0232 10.0512 12.4065 9.66787 12.7232C9.19287 13.1232 8.88454 13.3232 8.70121 13.4148L8.71787 13.4565L8.10954 12.8565C7.85121 12.5982 7.60121 12.4065 7.35954 12.2815C6.90121 11.9982 6.31787 11.9482 5.73454 12.1898C5.51787 12.2815 5.28454 12.4065 5.03454 12.5815L2.26787 14.5482C1.95954 14.7565 1.73454 15.0232 1.60121 15.3398C1.47621 15.6565 1.41788 15.9482 1.41788 16.2398C1.41788 16.6398 1.50954 17.0398 1.68454 17.4148C1.85954 17.7898 2.07621 18.1148 2.35121 18.4148C2.82621 18.9398 3.34287 19.3148 3.94287 19.5565C4.51787 19.7898 5.14287 19.9148 5.80121 19.9148ZM15.6845 3.24815C16.1429 3.24815 16.5679 3.44815 16.9762 3.84815C17.3595 4.20649 17.6262 4.59815 17.7929 5.02315C17.9679 5.45649 18.0512 5.91482 18.0512 6.40649C18.0512 7.18149 17.8679 8.02315 17.5012 8.88982C17.1262 9.77315 16.6012 10.6898 15.9345 11.6065C15.2679 12.5232 14.5095 13.4148 13.6762 14.2565C12.8429 15.0815 11.9429 15.8482 11.0179 16.5232C10.1179 17.1815 9.19287 17.7148 8.27621 18.0982C6.85121 18.7065 5.51787 18.8482 4.41787 18.3898C3.99287 18.2148 3.61788 17.9482 3.27621 17.5648C3.08454 17.3565 2.93454 17.1315 2.80954 16.8648C2.70954 16.6565 2.65954 16.4398 2.65954 16.2232C2.65954 16.0898 2.68454 15.9565 2.75121 15.8065C2.77621 15.7565 2.82621 15.6648 2.98454 15.5565L5.75121 13.5898C5.91787 13.4732 6.06787 13.3898 6.20954 13.3315C6.39288 13.2565 6.46787 13.1815 6.75121 13.3565C6.91788 13.4398 7.06787 13.5648 7.23454 13.7315L7.86787 14.3565C8.19287 14.6732 8.69287 14.7482 9.07621 14.6065L9.30121 14.5065C9.64287 14.3232 10.0429 14.0398 10.4845 13.6648C10.8845 13.3232 11.3179 12.9232 11.8429 12.4065C12.2512 11.9898 12.6595 11.5482 13.0845 11.0565C13.4762 10.5982 13.7595 10.2065 13.9345 9.88149L14.0345 9.63149C14.0845 9.43982 14.1012 9.33149 14.1012 9.21482C14.1012 8.91482 13.9929 8.64815 13.7845 8.43982L13.1595 7.78982C12.9929 7.62315 12.8679 7.46482 12.7845 7.32315C12.7179 7.21482 12.6929 7.12315 12.6929 7.03982C12.6929 6.97315 12.7179 6.87315 12.7595 6.77315C12.8179 6.63982 12.9095 6.48982 13.0262 6.33149L14.9595 3.59815C15.0429 3.48149 15.1429 3.39815 15.2679 3.33982C15.4012 3.28149 15.5429 3.24815 15.6845 3.24815ZM8.71787 13.4648L8.85121 14.0315L8.62621 13.4482C8.66787 13.4398 8.70121 13.4482 8.71787 13.4648Z" fill="black"/>
</svg>
