<svg width="15" height="15" viewBox="0 0 15 15" fill="none" xmlns="http://www.w3.org/2000/svg">
<path d="M9.59412 13.135C9.48329 13.135 9.37246 13.0942 9.28496 13.0067C9.11579 12.8375 9.11579 12.5575 9.28496 12.3883L10.93 10.7433C11.0991 10.5742 11.3791 10.5742 11.5483 10.7433C11.7175 10.9125 11.7175 11.1925 11.5483 11.3617L9.90329 13.0067C9.81579 13.0942 9.70496 13.135 9.59412 13.135Z" fill="#538576"/>
<path d="M11.2391 13.135C11.1283 13.135 11.0175 13.0942 10.93 13.0067L9.28496 11.3617C9.11579 11.1925 9.11579 10.9125 9.28496 10.7433C9.45412 10.5742 9.73412 10.5742 9.90329 10.7433L11.5483 12.3883C11.7175 12.5575 11.7175 12.8375 11.5483 13.0067C11.4608 13.0942 11.35 13.135 11.2391 13.135Z" fill="#538576"/>
<path d="M7.59325 7.27833C7.57575 7.27833 7.56408 7.27833 7.54658 7.27833C7.51741 7.2725 7.47658 7.2725 7.44158 7.27833C5.74991 7.22583 4.47241 5.89583 4.47241 4.25666C4.47241 2.58833 5.83158 1.22916 7.49991 1.22916C9.16825 1.22916 10.5274 2.58833 10.5274 4.25666C10.5216 5.89583 9.23825 7.22583 7.61075 7.27833C7.60491 7.27833 7.59908 7.27833 7.59325 7.27833ZM7.49991 2.10416C6.31575 2.10416 5.34741 3.0725 5.34741 4.25666C5.34741 5.42333 6.25741 6.3625 7.41825 6.40333C7.45325 6.3975 7.52908 6.3975 7.60491 6.40333C8.74825 6.35083 9.64658 5.41166 9.65241 4.25666C9.65241 3.0725 8.68408 2.10416 7.49991 2.10416Z" fill="#538576"/>
<path d="M7.49991 13.66C6.30991 13.66 5.18408 13.3508 4.33241 12.7792C3.52158 12.2367 3.07825 11.4958 3.07825 10.6967C3.07825 9.8975 3.52741 9.1625 4.33241 8.62583C6.07658 7.45916 8.91158 7.45916 10.6557 8.62583C10.8541 8.76 10.9124 9.03417 10.7782 9.2325C10.6441 9.43667 10.3699 9.48917 10.1716 9.355C8.71908 8.38666 6.26908 8.38666 4.81658 9.355C4.25658 9.72833 3.95325 10.2008 3.95325 10.6967C3.95325 11.1925 4.26241 11.6767 4.81658 12.05C5.52241 12.5225 6.47325 12.7792 7.49408 12.7792C7.73325 12.7792 7.93158 12.9775 7.93158 13.2167C7.93158 13.4558 7.73908 13.66 7.49991 13.66Z" fill="#538576"/>
</svg>
