<svg width="21" height="23" viewBox="0 0 21 23" fill="none" xmlns="http://www.w3.org/2000/svg">
<path d="M9.42587 13.7455H11.5159C11.812 13.7455 12.0603 13.6399 12.261 13.4287C12.4616 13.2175 12.5616 12.9564 12.5609 12.6455C12.5609 12.3338 12.4606 12.0728 12.2599 11.8623C12.0593 11.6518 11.8113 11.5462 11.5159 11.5455H9.42587C9.12979 11.5455 8.88178 11.6511 8.68183 11.8623C8.48189 12.0735 8.38157 12.3346 8.38087 12.6455C8.38087 12.9572 8.48119 13.2186 8.68183 13.4298C8.88247 13.641 9.13049 13.7462 9.42587 13.7455ZM9.42587 10.4455H15.6959C15.992 10.4455 16.2403 10.3399 16.441 10.1287C16.6416 9.9175 16.7416 9.65643 16.7409 9.3455C16.7409 9.03383 16.6406 8.77276 16.4399 8.5623C16.2393 8.35183 15.9913 8.24623 15.6959 8.2455H9.42587C9.12979 8.2455 8.88178 8.3511 8.68183 8.5623C8.48189 8.7735 8.38157 9.03456 8.38087 9.3455C8.38087 9.65716 8.48119 9.9186 8.68183 10.1298C8.88247 10.341 9.13049 10.4462 9.42587 10.4455ZM9.42587 7.1455H15.6959C15.992 7.1455 16.2403 7.0399 16.441 6.8287C16.6416 6.6175 16.7416 6.35643 16.7409 6.0455C16.7409 5.73383 16.6406 5.47276 16.4399 5.2623C16.2393 5.05183 15.9913 4.94623 15.6959 4.9455H9.42587C9.12979 4.9455 8.88178 5.0511 8.68183 5.2623C8.48189 5.4735 8.38157 5.73456 8.38087 6.0455C8.38087 6.35716 8.48119 6.6186 8.68183 6.8298C8.88247 7.041 9.13049 7.14623 9.42587 7.1455ZM6.29087 18.1455C5.71612 18.1455 5.22428 17.9303 4.81533 17.4998C4.40639 17.0693 4.20157 16.5512 4.20087 15.9455V2.7455C4.20087 2.1405 4.40569 1.62276 4.81533 1.1923C5.22497 0.761831 5.71682 0.546231 6.29087 0.545498H18.8309C19.4056 0.545498 19.8978 0.761098 20.3075 1.1923C20.7171 1.6235 20.9216 2.14123 20.9209 2.7455V15.9455C20.9209 16.5505 20.7164 17.0686 20.3075 17.4998C19.8985 17.931 19.4063 18.1462 18.8309 18.1455H6.29087ZM2.11087 22.5455C1.53612 22.5455 1.04428 22.3303 0.635334 21.8998C0.226391 21.4693 0.0215707 20.9512 0.020874 20.3455V6.0455C0.020874 5.73383 0.121194 5.47276 0.321834 5.2623C0.522474 5.05183 0.770487 4.94623 1.06587 4.9455C1.36196 4.9455 1.61032 5.0511 1.81096 5.2623C2.0116 5.4735 2.11157 5.73456 2.11087 6.0455V20.3455H15.6959C15.992 20.3455 16.2403 20.4511 16.441 20.6623C16.6416 20.8735 16.7416 21.1346 16.7409 21.4455C16.7409 21.7572 16.6406 22.0186 16.4399 22.2298C16.2393 22.441 15.9913 22.5462 15.6959 22.5455H2.11087Z" fill="white"/>
</svg>
