<svg width="25" height="24" viewBox="0 0 25 24" fill="none" xmlns="http://www.w3.org/2000/svg">
<g filter="url(#filter0_d_0_7836)">
<path d="M20.8362 11.641C20.8362 14.0492 18.879 16.0064 16.4708 16.0064V14.915C18.2897 14.915 19.7448 13.4599 19.7448 11.641H20.8362ZM4.82981 4.36537C4.82981 1.95714 6.78695 0 9.19518 0V1.09134C7.37628 1.09134 5.92115 2.54647 5.92115 4.36537H4.82981ZM9.92274 2.41551L6.58323 5.76229C4.24048 8.10504 4.24048 11.9102 6.58323 14.2529C8.92598 16.5957 12.7311 16.5957 15.0739 14.2529L20.2177 9.09452C20.5742 8.75257 20.5742 8.1778 20.2177 7.82129C20.1333 7.7366 20.0329 7.6694 19.9224 7.62355C19.8119 7.5777 19.6935 7.5541 19.5739 7.5541C19.4542 7.5541 19.3358 7.5777 19.2253 7.62355C19.1148 7.6694 19.0144 7.7366 18.93 7.82129L15.7141 11.0371L15.1976 10.5205L19.9558 5.76229C20.3123 5.40579 20.3123 4.83101 19.9558 4.47451C19.5993 4.118 19.0173 4.118 18.6535 4.47451L14.4264 8.73074L13.9243 8.19962L18.9227 3.18672C19.2792 2.83022 19.2792 2.25544 18.9227 1.89894C18.5662 1.54243 17.9914 1.54243 17.6349 1.89894L12.622 6.91184L12.1054 6.40254L16.107 2.41551C16.4708 2.059 16.4708 1.48423 16.107 1.12772C15.7432 0.771216 15.1757 0.771216 14.8192 1.12772L9.27521 6.67174C9.70931 7.2317 9.9244 7.93069 9.8802 8.63782C9.83601 9.34495 9.53556 10.0117 9.03512 10.5133L8.51855 9.9967C8.92729 9.58745 9.15688 9.03268 9.15688 8.45427C9.15688 7.87586 8.92729 7.32109 8.51855 6.91184L8.2639 6.65719L11.2251 3.69601C11.5816 3.33951 11.5816 2.76474 11.2251 2.40823C10.8613 2.059 10.2865 2.059 9.92274 2.41551Z" fill="#538576"/>
</g>
<defs>
<filter id="filter0_d_0_7836" x="0.826172" y="0" width="24.01" height="24.01" filterUnits="userSpaceOnUse" color-interpolation-filters="sRGB">
<feFlood flood-opacity="0" result="BackgroundImageFix"/>
<feColorMatrix in="SourceAlpha" type="matrix" values="0 0 0 0 0 0 0 0 0 0 0 0 0 0 0 0 0 0 127 0" result="hardAlpha"/>
<feOffset dy="4"/>
<feGaussianBlur stdDeviation="2"/>
<feComposite in2="hardAlpha" operator="out"/>
<feColorMatrix type="matrix" values="0 0 0 0 0 0 0 0 0 0 0 0 0 0 0 0 0 0 0.05 0"/>
<feBlend mode="normal" in2="BackgroundImageFix" result="effect1_dropShadow_0_7836"/>
<feBlend mode="normal" in="SourceGraphic" in2="effect1_dropShadow_0_7836" result="shape"/>
</filter>
</defs>
</svg>
