<svg width="19" height="23" viewBox="0 0 19 23" fill="none" xmlns="http://www.w3.org/2000/svg">
<path d="M18.1083 17.709L18.525 18.2642C18.583 18.3416 18.6184 18.4336 18.6271 18.53C18.6358 18.6263 18.6174 18.7232 18.5742 18.8097C18.5309 18.8962 18.4644 18.9689 18.3822 19.0198C18.2999 19.0706 18.2051 19.0976 18.1083 19.0976H1.44167C1.34495 19.0976 1.25013 19.0706 1.16785 19.0198C1.08557 18.9689 1.01908 18.8962 0.975823 18.8097C0.932567 18.7232 0.914256 18.6263 0.922942 18.53C0.931629 18.4336 0.966969 18.3416 1.025 18.2642L1.44167 17.709V8.68091C1.44167 6.47078 2.31964 4.35116 3.88245 2.78836C5.44525 1.22555 7.56487 0.34758 9.775 0.34758C11.9851 0.34758 14.1048 1.22555 15.6676 2.78836C17.2304 4.35116 18.1083 6.47078 18.1083 8.68091V17.709ZM7.17084 20.1392H12.3792C12.3792 20.8299 12.1048 21.4923 11.6164 21.9807C11.1281 22.469 10.4657 22.7434 9.775 22.7434C9.08434 22.7434 8.42196 22.469 7.93358 21.9807C7.4452 21.4923 7.17084 20.8299 7.17084 20.1392Z" fill="white"/>
</svg>
