<svg width="17" height="15" viewBox="0 0 17 15" fill="none" xmlns="http://www.w3.org/2000/svg">
<path d="M2.81083 7.50001V1M14.1858 14V11.5625M2.81083 14V10.75M14.1858 8.31251V1M8.49833 3.4375V1M8.49833 14V6.68751" stroke="white" stroke-width="0.75" stroke-linecap="round"/>
<path d="M2.81252 10.75C3.70998 10.75 4.43752 10.0225 4.43752 9.125C4.43752 8.22754 3.70998 7.5 2.81252 7.5C1.91505 7.5 1.18752 8.22754 1.18752 9.125C1.18752 10.0225 1.91505 10.75 2.81252 10.75Z" stroke="white" stroke-width="0.75" stroke-linecap="round"/>
<path d="M8.50172 6.6875C9.39919 6.6875 10.1267 5.95997 10.1267 5.0625C10.1267 4.16504 9.39919 3.4375 8.50172 3.4375C7.60426 3.4375 6.87672 4.16504 6.87672 5.0625C6.87672 5.95997 7.60426 6.6875 8.50172 6.6875Z" stroke="white" stroke-width="0.75" stroke-linecap="round"/>
<path d="M14.1875 11.5625C15.085 11.5625 15.8125 10.835 15.8125 9.9375C15.8125 9.04004 15.085 8.3125 14.1875 8.3125C13.2901 8.3125 12.5625 9.04004 12.5625 9.9375C12.5625 10.835 13.2901 11.5625 14.1875 11.5625Z" stroke="white" stroke-width="0.75" stroke-linecap="round"/>
</svg>
