<svg width="25" height="22" viewBox="0 0 25 22" fill="none" xmlns="http://www.w3.org/2000/svg">
<path d="M12.3429 14.7452C9.95294 14.7452 8.01294 13.0477 8.01294 10.9565C8.01294 8.86522 9.95294 7.16772 12.3429 7.16772C14.7329 7.16772 16.6729 8.86522 16.6729 10.9565C16.6729 13.0477 14.7329 14.7452 12.3429 14.7452ZM12.3429 8.48022C10.7829 8.48022 9.51294 9.59147 9.51294 10.9565C9.51294 12.3215 10.7829 13.4327 12.3429 13.4327C13.9029 13.4327 15.1729 12.3215 15.1729 10.9565C15.1729 9.59147 13.9029 8.48022 12.3429 8.48022Z" fill="#292D32"/>
<path d="M12.3429 18.849C8.58285 18.849 5.03285 16.924 2.59285 13.5815C1.53285 12.1377 1.53285 9.78396 2.59285 8.33146C5.04285 4.98896 8.59285 3.06396 12.3429 3.06396C16.0929 3.06396 19.6429 4.98896 22.0829 8.33146C23.1429 9.77521 23.1429 12.129 22.0829 13.5815C19.6429 16.924 16.0929 18.849 12.3429 18.849ZM12.3429 4.37646C9.11285 4.37646 6.02285 6.07396 3.86285 9.04022C3.11285 10.064 3.11285 11.849 3.86285 12.8727C6.02285 15.839 9.11285 17.5365 12.3429 17.5365C15.5729 17.5365 18.6629 15.839 20.8229 12.8727C21.5729 11.849 21.5729 10.064 20.8229 9.04022C18.6629 6.07396 15.5729 4.37646 12.3429 4.37646Z" fill="#292D32"/>
</svg>
