<svg width="17" height="17" viewBox="0 0 17 17" fill="none" xmlns="http://www.w3.org/2000/svg">
<path d="M8.47875 16.1146C4.28542 16.1146 0.864166 12.7004 0.864166 8.49999C0.864166 4.29957 4.28542 0.885406 8.47875 0.885406C12.6721 0.885406 16.0933 4.29957 16.0933 8.49999C16.0933 12.7004 12.6792 16.1146 8.47875 16.1146ZM8.47875 1.94791C4.86625 1.94791 1.92667 4.88749 1.92667 8.49999C1.92667 12.1125 4.86625 15.0521 8.47875 15.0521C12.0913 15.0521 15.0308 12.1125 15.0308 8.49999C15.0308 4.88749 12.0913 1.94791 8.47875 1.94791Z" fill="white"/>
<path d="M7.09042 11.2979H6.16959C5.51792 11.2979 5.13542 10.9225 5.13542 10.2921V6.70792C5.13542 6.0775 5.52501 5.70209 6.16959 5.70209H7.08334C7.73501 5.70209 8.11751 6.0775 8.11751 6.70792V10.2921C8.12459 10.9225 7.73501 11.2979 7.09042 11.2979ZM6.19792 10.2354H7.06209V6.76459H6.20501L6.19792 10.2354Z" fill="white"/>
<path d="M10.8304 11.2979H9.91667C9.26501 11.2979 8.88251 10.9225 8.88251 10.2921V6.70792C8.88251 6.0775 9.27209 5.70209 9.91667 5.70209H10.8304C11.4821 5.70209 11.8646 6.0775 11.8646 6.70792V10.2921C11.8646 10.9225 11.475 11.2979 10.8304 11.2979ZM9.93792 10.2354H10.8021V6.76459H9.94501L9.93792 10.2354Z" fill="white"/>
</svg>
