<svg width="21" height="21" viewBox="0 0 21 21" fill="none" xmlns="http://www.w3.org/2000/svg">
<path d="M10.2098 10.6398C10.2348 10.6398 10.2515 10.6398 10.2765 10.6398C10.3182 10.6315 10.3765 10.6315 10.4265 10.6398C12.8432 10.5648 14.6682 8.6648 14.6682 6.32314C14.6682 3.93981 12.7265 1.99814 10.3432 1.99814C7.95985 1.99814 6.01818 3.93981 6.01818 6.32314C6.02651 8.6648 7.85985 10.5648 10.1848 10.6398C10.1932 10.6398 10.2015 10.6398 10.2098 10.6398ZM10.3432 3.24814C12.0348 3.24814 13.4182 4.63147 13.4182 6.32314C13.4182 7.98981 12.1182 9.33147 10.4598 9.3898C10.4182 9.38147 10.3015 9.38147 10.1932 9.3898C8.55985 9.31481 7.27652 7.97314 7.26818 6.32314C7.26818 4.63147 8.65152 3.24814 10.3432 3.24814Z" fill="black"/>
<path d="M10.2015 19.7482C11.8349 19.7482 13.4765 19.3315 14.7182 18.4982C15.8765 17.7315 16.5099 16.6815 16.5099 15.5398C16.5099 14.3982 15.8765 13.3398 14.7182 12.5648C12.2182 10.9065 8.16819 10.9065 5.68486 12.5648C4.53486 13.3315 3.89319 14.3815 3.89319 15.5232C3.89319 16.6648 4.52652 17.7232 5.68486 18.4982C6.93486 19.3315 8.56819 19.7482 10.2015 19.7482ZM14.0265 13.6148C14.8265 14.1482 15.2599 14.8315 15.2599 15.5482C15.2599 16.2565 14.8182 16.9398 14.0265 17.4648C11.9515 18.8565 8.45152 18.8565 6.37652 17.4648C5.57652 16.9315 5.14319 16.2482 5.14319 15.5315C5.14319 14.8232 5.58486 14.1398 6.37652 13.6148C8.45152 12.2315 11.9515 12.2315 14.0265 13.6148Z" fill="black"/>
</svg>
