<svg width="25" height="26" viewBox="0 0 25 26" fill="none" xmlns="http://www.w3.org/2000/svg">
<path d="M12.5001 1.5C6.14867 1.5 1.00012 6.64855 1.00012 13C1.00012 19.3514 6.14867 24.5 12.5001 24.5C18.8516 24.5 24.0001 19.3514 24.0001 13C24.0001 6.64855 18.8516 1.5 12.5001 1.5Z" stroke="#538576" stroke-width="1.5" stroke-linecap="round" stroke-linejoin="round"/>
<path d="M3.61304 20.2979C3.61304 20.2979 6.17639 17.025 12.5014 17.025C18.8264 17.025 21.3909 20.2979 21.3909 20.2979M12.5014 13C13.4164 13 14.2939 12.6365 14.9409 11.9895C15.5879 11.3425 15.9514 10.465 15.9514 9.54998C15.9514 8.63498 15.5879 7.75746 14.9409 7.11046C14.2939 6.46346 13.4164 6.09998 12.5014 6.09998C11.5864 6.09998 10.7089 6.46346 10.0619 7.11046C9.41487 7.75746 9.05139 8.63498 9.05139 9.54998C9.05139 10.465 9.41487 11.3425 10.0619 11.9895C10.7089 12.6365 11.5864 13 12.5014 13Z" stroke="#538576" stroke-width="1.5" stroke-linecap="round" stroke-linejoin="round"/>
</svg>
