<svg width="12" height="12" viewBox="0 0 12 12" fill="none" xmlns="http://www.w3.org/2000/svg">
<path d="M10.99 11.436L6.81533 7.26136C6.482 7.54536 6.09867 7.76514 5.66533 7.9207C5.232 8.07625 4.79644 8.15403 4.35867 8.15403C3.29111 8.15403 2.38755 7.78447 1.648 7.04536C0.908444 6.30581 0.538666 5.40247 0.538666 4.33536C0.538666 3.26825 0.907999 2.36447 1.64667 1.62403C2.38578 0.88314 3.28889 0.512695 4.356 0.512695C5.42356 0.512695 6.32756 0.882473 7.068 1.62203C7.80844 2.36158 8.17867 3.26536 8.17867 4.33336C8.17867 4.79647 8.09667 5.2447 7.93267 5.67803C7.76822 6.11136 7.55267 6.48203 7.286 6.79003L11.4607 10.964L10.99 11.436ZM4.35867 7.4867C5.24311 7.4867 5.99 7.18225 6.59933 6.57336C7.20822 5.96447 7.51267 5.21758 7.51267 4.3327C7.51267 3.44825 7.20822 2.70158 6.59933 2.0927C5.99044 1.48381 5.24378 1.17936 4.35933 1.17936C3.47489 1.17936 2.728 1.48381 2.11867 2.0927C1.50978 2.70158 1.20533 3.44825 1.20533 4.3327C1.20533 5.21714 1.50978 5.96381 2.11867 6.5727C2.72755 7.18159 3.47422 7.4867 4.35867 7.4867Z" fill="black" fill-opacity="0.5"/>
</svg>
