<svg width="21" height="20" viewBox="0 0 21 20" fill="none" xmlns="http://www.w3.org/2000/svg">
<path d="M6.33334 17.7083H14.6667C17.7083 17.7083 19.4583 15.9583 19.4583 12.9167V7.08332C19.4583 4.04166 17.7083 2.29166 14.6667 2.29166H6.33334C3.29168 2.29166 1.54168 4.04166 1.54168 7.08332V12.9167C1.54168 15.9583 3.29168 17.7083 6.33334 17.7083ZM14.6667 3.54166C17.05 3.54166 18.2083 4.69999 18.2083 7.08332V12.9167C18.2083 15.3 17.05 16.4583 14.6667 16.4583H6.33334C3.95001 16.4583 2.79168 15.3 2.79168 12.9167V7.08332C2.79168 4.69999 3.95001 3.54166 6.33334 3.54166H14.6667Z" fill="black"/>
<path d="M10.5002 10.725C11.2002 10.725 11.9085 10.5083 12.4502 10.0666L15.0585 7.98331C15.3252 7.76664 15.3752 7.37497 15.1585 7.10831C14.9418 6.84164 14.5502 6.79164 14.2835 7.00831L11.6752 9.09164C11.0418 9.59998 9.96685 9.59998 9.33351 9.09164L6.72518 7.00831C6.45851 6.79164 6.05851 6.83331 5.85017 7.10831C5.63351 7.37497 5.67517 7.77498 5.95017 7.98331L8.55851 10.0666C9.09184 10.5083 9.80018 10.725 10.5002 10.725Z" fill="black"/>
</svg>
