<svg width="33" height="30" viewBox="0 0 33 30" fill="none" xmlns="http://www.w3.org/2000/svg">
<path d="M28.5741 29.9577L19.179 21.085L22.7826 17.6817L32.1776 26.5545L28.5741 29.9577ZM4.8934 29.9577L1.28982 26.5545L13.1301 15.3724L10.213 12.6174L9.01177 13.7518L6.82388 11.6855V15.0077L5.62269 16.1422L0.431824 11.2398L1.63302 10.1054H5.15079L3.00581 8.07968L9.09757 2.32656C9.66957 1.78636 10.2845 1.39472 10.9423 1.15163C11.6001 0.908537 12.2722 0.786992 12.9585 0.786992C13.6449 0.786992 14.317 0.908537 14.9748 1.15163C15.6326 1.39472 16.2475 1.78636 16.8195 2.32656L12.8727 6.05393L15.0177 8.07968L13.8165 9.2141L16.7337 11.9691L20.5947 8.32277C20.4803 8.02566 20.3876 7.71504 20.3167 7.39093C20.2458 7.06681 20.2097 6.74269 20.2086 6.41857C20.2086 4.82498 20.788 3.48096 21.9469 2.38652C23.1058 1.29208 24.5283 0.745396 26.2146 0.746477C26.6436 0.746477 27.0514 0.786992 27.4381 0.868022C27.8247 0.949052 28.2177 1.0706 28.617 1.23266L24.3699 5.24363L27.4587 8.16071L31.7057 4.14973C31.9059 4.52787 32.0421 4.89899 32.1141 5.26308C32.1862 5.62718 32.2217 6.01234 32.2205 6.41857C32.2205 8.01215 31.6417 9.35617 30.4839 10.4506C29.3262 11.5451 27.9031 12.0917 26.2146 12.0907C25.8714 12.0907 25.5282 12.0636 25.185 12.0096C24.8418 11.9556 24.5129 11.8611 24.1983 11.726L4.8934 29.9577Z" fill="white"/>
</svg>
