<svg width="33" height="33" viewBox="0 0 33 33" fill="none" xmlns="http://www.w3.org/2000/svg">
<g filter="url(#filter0_d_0_8724)">
<rect x="2" y="1" width="29" height="29" rx="8" fill="white"/>
<rect x="2.5" y="1.5" width="28" height="28" rx="7.5" stroke="#EAECF0"/>
<path d="M13.6667 17.8333L16.5001 15M16.5001 15L19.3334 17.8333M16.5001 15V21.375M22.1667 18.3595C23.032 17.6449 23.5834 16.564 23.5834 15.3542C23.5834 13.2026 21.8392 11.4583 19.6876 11.4583C19.5328 11.4583 19.388 11.3776 19.3094 11.2442C18.3857 9.67676 16.6803 8.625 14.7292 8.625C11.7952 8.625 9.41675 11.0035 9.41675 13.9375C9.41675 15.401 10.0085 16.7263 10.9658 17.6871" stroke="#475467" stroke-width="1.66667" stroke-linecap="round" stroke-linejoin="round"/>
</g>
<defs>
<filter id="filter0_d_0_8724" x="0" y="0" width="33" height="33" filterUnits="userSpaceOnUse" color-interpolation-filters="sRGB">
<feFlood flood-opacity="0" result="BackgroundImageFix"/>
<feColorMatrix in="SourceAlpha" type="matrix" values="0 0 0 0 0 0 0 0 0 0 0 0 0 0 0 0 0 0 127 0" result="hardAlpha"/>
<feOffset dy="1"/>
<feGaussianBlur stdDeviation="1"/>
<feColorMatrix type="matrix" values="0 0 0 0 0.0627451 0 0 0 0 0.0941176 0 0 0 0 0.156863 0 0 0 0.05 0"/>
<feBlend mode="normal" in2="BackgroundImageFix" result="effect1_dropShadow_0_8724"/>
<feBlend mode="normal" in="SourceGraphic" in2="effect1_dropShadow_0_8724" result="shape"/>
</filter>
</defs>
</svg>
